<?xml version="1.0" standalone="no"?>
<!DOCTYPE svg PUBLIC "-//W3C//DTD SVG 20010904//EN"
 "http://www.w3.org/TR/2001/REC-SVG-20010904/DTD/svg10.dtd">
<svg version="1.0" xmlns="http://www.w3.org/2000/svg"
 width="256.000000pt" height="256.000000pt" viewBox="0 0 256.000000 256.000000"
 preserveAspectRatio="xMidYMid meet">
<metadata>
Created by potrace 1.11, written by Peter Selinger 2001-2013
</metadata>
<g transform="translate(0.000000,256.000000) scale(0.100000,-0.100000)"
fill="#000000" stroke="none">
<path d="M571 2551 c-26 -16 -14 -142 21 -239 l20 -53 -39 -33 c-37 -33 -38
-36 -38 -97 0 -61 3 -83 25 -209 22 -125 22 -119 -5 -148 -45 -48 -53 -128
-19 -194 18 -35 78 -74 125 -82 32 -6 37 -11 48 -49 34 -114 134 -250 234
-317 36 -25 37 -26 37 -92 0 -65 -1 -68 -27 -74 -81 -19 -365 -96 -406 -110
-178 -59 -323 -221 -361 -404 -8 -39 -14 -139 -15 -247 -2 -172 -1 -183 18
-192 13 -8 362 -11 1100 -11 1077 0 1080 0 1091 20 7 13 10 87 9 204 -1 154
-5 194 -24 258 -45 157 -148 279 -296 347 -47 22 -456 141 -485 141 -2 0 -4
31 -4 68 0 65 1 68 30 86 92 54 210 213 239 323 10 38 15 43 49 49 50 9 72 21
104 56 51 56 57 139 17 205 -11 17 -26 34 -35 37 -12 5 -14 21 -10 98 25 455
25 474 8 525 -15 47 -56 94 -104 120 -31 17 -79 18 -663 21 -353 1 -636 -2
-644 -7z m1276 -96 c58 -34 66 -66 58 -233 -4 -81 -9 -165 -10 -187 -2 -22 -3
-71 -4 -109 -1 -77 -8 -83 -17 -15 -8 58 -47 177 -74 222 -31 52 -49 52 -118
3 -111 -79 -322 -129 -539 -128 -124 0 -266 61 -353 152 -75 78 -132 190 -143
280 l-4 35 586 0 c558 -1 588 -2 618 -20z m-1127 -359 c0 -6 -7 -33 -15 -61
-9 -27 -18 -81 -20 -120 -8 -117 -24 -105 -40 30 -4 28 -8 57 -10 65 -23 82
-22 140 2 157 16 12 22 10 50 -23 18 -20 33 -41 33 -48z m1047 -107 c20 -57
22 -85 23 -249 0 -207 -10 -264 -61 -361 -86 -160 -281 -274 -461 -268 -222 7
-413 156 -479 372 -15 50 -18 94 -17 266 0 119 5 224 12 249 l11 42 36 -24
c85 -58 183 -87 309 -91 183 -5 399 36 521 100 35 18 69 32 74 31 6 -1 20 -31
32 -67z m-1086 -254 c0 -8 0 -35 0 -60 0 -86 -1 -95 -15 -95 -7 0 -25 12 -40
26 -42 42 -33 102 19 132 27 15 35 15 36 -3z m1239 0 c35 -18 50 -73 30 -110
-13 -25 -56 -52 -66 -42 -5 5 -8 79 -5 145 1 26 3 27 41 7z m-810 -685 c112
-33 226 -32 360 4 l26 7 -3 -83 c-4 -97 -14 -131 -51 -174 -59 -69 -163 -95
-244 -61 -43 18 -95 70 -113 113 -12 28 -21 135 -16 192 1 15 -2 14 41 2z
m-130 -568 l0 -398 -26 1 c-25 2 -29 8 -56 101 -16 54 -40 135 -53 178 -28 88
-27 91 34 127 41 25 61 47 61 66 0 8 -27 41 -59 75 l-60 61 44 88 c44 86 50
92 103 98 9 1 12 -85 12 -397z m657 388 c7 0 33 -40 57 -89 l45 -89 -59 -60
c-79 -80 -78 -86 5 -142 28 -18 51 -34 53 -36 3 -2 -95 -344 -103 -361 0 -1
-13 -4 -28 -7 l-27 -5 0 401 0 400 23 -6 c12 -3 28 -6 34 -6z m-854 -57 c-4
-9 -17 -38 -30 -65 -13 -26 -23 -57 -23 -68 0 -11 20 -40 45 -66 25 -25 45
-48 45 -52 0 -4 -18 -18 -40 -32 -23 -14 -43 -36 -47 -49 -4 -15 14 -92 49
-207 35 -116 51 -184 44 -187 -9 -2 -512 -1 -556 2 -13 1 -15 24 -13 159 1
132 5 169 23 222 39 116 124 221 222 271 39 21 245 87 275 88 8 1 10 -6 6 -16z
m1112 -14 c61 -17 136 -44 168 -61 108 -58 201 -184 228 -308 10 -47 20 -312
12 -335 -2 -6 -105 -9 -286 -8 -155 0 -285 1 -289 2 -3 1 1 22 9 49 65 210 95
323 90 344 -4 12 -24 34 -47 48 -22 14 -40 28 -40 32 0 4 20 28 45 54 25 25
45 54 45 66 0 11 -13 47 -30 80 -16 32 -30 61 -30 63 0 8 11 6 125 -26z m-735
-131 c88 -42 221 -28 296 31 14 11 29 19 33 17 5 -3 6 -453 2 -601 l-1 -30
-210 0 c-115 0 -210 2 -211 5 -3 20 -3 623 0 626 3 2 14 -3 25 -11 12 -9 41
-25 66 -37z"/>
<path d="M955 1832 c-45 -10 -102 -73 -101 -111 1 -19 86 -22 86 -3 0 7 12 18
26 24 23 11 29 10 46 -11 14 -18 30 -25 58 -25 44 -2 49 8 26 52 -28 54 -88
85 -141 74z"/>
<path d="M1546 1829 c-55 -15 -117 -100 -86 -119 20 -12 69 -1 91 21 26 26 45
24 65 -6 14 -21 21 -24 53 -19 20 3 38 7 39 9 2 2 -4 20 -13 39 -30 62 -89 92
-149 75z"/>
<path d="M1150 1693 c0 -80 4 -104 20 -131 55 -90 165 -90 220 1 16 26 20 51
20 130 l0 97 -44 0 -44 0 0 -90 c1 -93 -9 -120 -42 -120 -33 0 -43 27 -42 120
l0 90 -44 0 -44 0 0 -97z"/>
<path d="M1460 1431 c0 -5 -25 -22 -55 -36 -81 -40 -175 -38 -257 4 l-60 31
-29 -21 c-16 -11 -29 -24 -29 -29 0 -16 95 -71 149 -87 106 -30 246 -3 331 66
l25 20 -34 30 c-38 34 -41 36 -41 22z"/>
</g>
</svg>
